PathFileType	4	(X/Y/Z)	two_link_pedal_001.trc
DataRate	CameraRate	NumFrames	NumMarkers	Units	OrigDataRate	OrigDataStartFrame	OrigNumFrames
100	100	6	2	m	100	1	7	
Frame#	Time	Link2_Marker_1			Link1_Marker_1		
		X1	Y1	Z1	X2	Y2	Z2

1	0.000000000	-0.147989899	0.447989899	0.000000000	0.050000000	0.250000000	0.000000000
2	0.010000000	-0.058009953	0.418391919	0.000000000	0.050000000	0.250000000	0.000000000
3	0.020000000	0.031969993	0.388793939	0.000000000	0.050000000	0.250000000	0.000000000
4	0.030000000	0.121949939	0.359195959	0.000000000	0.050000000	0.250000000	0.000000000
5	0.040000000	0.211929884	0.329597980	0.000000000	0.050000000	0.250000000	0.000000000
6	0.050000000	0.301909830	0.300000000	0.000000000	0.050000000	0.250000000	0.000000000
